<?xml version="1.0" encoding="UTF-8"?>
<svg id="_レイヤー_2" data-name="レイヤー 2" xmlns="http://www.w3.org/2000/svg" viewBox="0 0 1116.77 934.71">
  <defs>
    <style>
      .cls-1 {
        fill: #060001;
      }

      .cls-2 {
        fill: #fff;
      }
    </style>
  </defs>
  <g id="_レイヤー_1-2" data-name="レイヤー 1">
    <g>
      <path class="cls-1" d="M1090.98,564.9C1182.12,302.95,1019.59,25.56,793.95,1.04,568.31-23.47-151.79,389.63,28.74,625.02c180.52,235.39,971.44,200.86,1062.24-60.12Z"/>
      <g>
        <path class="cls-2" d="M515.53,415.3c30.14-2.19,44.47,26,37.78,52.59-4.83,19.18-21.76,29.67-41.27,27.07-42.39-5.64-41.15-76.41,3.49-79.66Z"/>
        <path class="cls-2" d="M435.34,415.3c22.5-1.64,38.06,14.61,39.29,36.38,1.26,22.34-10.76,42.14-34.51,43.6-50.24,3.1-52.55-76.5-4.78-79.98Z"/>
        <path class="cls-2" d="M583.99,415.87c28.74-1.07,50.71,9.75,48.75,41.81-1.95,31.91-28.64,38.21-55.72,37.05-2.34-.1-7.21-.36-9.31-1-1.47-.44-2.61-1.84-2.57-3.44l.08-70.29c.44-1.64,1.73-2.34,3.3-2.71,4.19-.99,11.06-1.25,15.48-1.42Z"/>
        <path class="cls-2" d="M358.29,415.87c7.26-.53,17.69-.01,24.4,2.92,2.6,1.14,3.53,2.06,3.09,5.07-1.05,7.19-4.94,11.02-2.23,19.24,1.11,3.38,3.52,5.17,4.59,8.28v36.32c-.24,3.3-5.22,3.99-7.9,4.7-25.07,6.62-54.28.87-59.04-28.51-4.13-25.53,11.05-46.12,37.09-48.02Z"/>
        <path class="cls-2" d="M835.74,415.87c16.62-.56,36.85,2.69,36.43,23.79-.19,9.53-7.46,13.53-5.25,23.84,1.29,6.03,3.64,13.45,5.33,19.55.5,1.81,2.39,6.22,2.42,7.6.05,2.05-1.61,3.33-3.49,3.51-2.47.24-13.47.27-15.24-.54-4.74-2.15-6.35-3.77-12.26-3.19-3.86.38-5.39,2.25-8.34,3.4-1.36.53-12.93.56-14.84.29-1.32-.19-2.09-1-2.82-2.05l-.15-72.07c.58-1.75,1.38-2.23,3.07-2.65,4.24-1.05,10.69-1.33,15.13-1.48Z"/>
        <path class="cls-2" d="M754.36,493.18c-.59.54-1.54.87-2.34.96-2.6.29-11.84.37-14.25-.07-2.12-.38-3.37-2.8-2.66-4.81l23.12-71.29c.58-.9,1.6-1.5,2.67-1.63,2.63-.32,15.37-.39,17.64.13.53.12,1.47.64,1.82,1.04l23.81,72.32c.47,1.9-.97,3.98-2.9,4.28-2.38.37-12.76.37-15.14,0-1.87-.29-3.92-3.86-5.6-5.28-6.31-5.32-15.84-5.44-22.21-.15-1.57,1.31-2.72,3.36-3.96,4.48Z"/>
        <path class="cls-2" d="M682.5,416.43l41.75-.07c1.21-.05,2.97,1.34,3.23,2.49.33,1.45.3,10.88.04,12.5-.17,1.11-1.7,3.05-2.2,4.38-1.24,3.24-1.56,6.76-.85,10.15.25,1.18.93,2.29,1.07,3.51.22,1.99.3,10.79-.14,12.45-.89,3.38-7.04,2.06-9.74,2.28-7.55.62-14.9,6.86-15.82,14.52-.43,3.56.24,7.53-.07,11.08-.18,2.09-.78,3.97-3.09,4.35-2.04.34-12.55.39-14.47,0-1.8-.36-2.62-2.17-2.75-3.83l-.05-69.46c.17-2.15.73-3.93,3.09-4.35Z"/>
      </g>
      <g>
        <path class="cls-2" d="M214.64,922.83l9.55-27.72c.65-1.63,1.99-2.33,3.61-2.33s1.99.35,2.67,2.33l9.55,27.72c.65,2.33,4.96,5.3,4.96,6.29,0,.3,0,.99-.65.99h-11.24c-.64,0-.64-.69-.64-.99,0-1.68,2.97-1.34,2.97-3.66v-.65l-2.33-6.93c-.34-.35-.64-1.34-1.33-1.34h-11.19c-1.33,0-3.31,7.28-3.31,8.62,0,2.27,2.62,2.27,2.62,3.96,0,.3,0,.99-.65.99h-8.91c-.65,0-.65-.69-.65-.99,0-.99,4.26-3.96,4.95-6.29ZM222.56,912.93h7.23c.69,0,.98-.65.98-1.34v-.29c-.3-1.34-2.62-7.63-2.97-8.91,0-.34-.3-2.97-1.63-2.97-.65,0-.65.3-.99,1.29-.65,1.68-2.97,8.91-3.61,10.6v.29c0,.69.3,1.34.99,1.34Z"/>
        <path class="cls-2" d="M270.09,928.77c.65-.35,2.33-1.63,2.33-2.97v-27.72l-.35-.65c-.35-.34-1.34-1.34-1.64-1.68v-.64c0-1.63,3.61-2.33,4.61-2.33.35,0,1.98.69,1.98.99v30.4c0,2.62,2.62,2.97,2.62,5.24,0,.35-.65.69-.65.69h-8.56c-.35,0-.35-.69-.35-.99v-.34Z"/>
        <path class="cls-2" d="M286.48,928.77c.35-.35,1.69-1.63,1.99-1.98l.35-.65v-15.2c0-1.34-1.99-1.63-1.99-2.97,0-1.98,3.32-2.33,4.61-2.33s2.32.69,2.32,1.98v18.81l2.32,2.33v.34c0,.3,0,.99-.69.99h-8.22c-.69,0-.69-.69-.69-.99v-.34ZM290.79,892.49c1.98,0,2.97,1.63,2.97,3.26,0,1.98-.99,3.32-2.97,3.32s-3.32-1.34-3.32-3.32,1.34-3.26,3.32-3.26Z"/>
        <path class="cls-2" d="M307.71,900.41c.3-.69.3-2.68,1.63-2.68.35,0,1.34,0,1.34.69v5.59s.3.35.3.65l.35.35c.35,0,.65.34.65.34h4.95c.69,0,.69.99.69,1.29,0,.69,0,1.34-.69,1.34h-4.95s-.3.64-.65.64c-.35.35-.65.69-.65.99v14.56c0,2.27.99,3.61,2.97,3.61,1.64,0,2.62-.64,4.26-.64v.64c0,1.98-4.26,3.32-5.94,3.32-2.28,0-5.6-1.98-5.6-4.65v-16.83c0-1.63-3.32-.99-3.32-2.97,0-.65,3.96-4.26,4.66-6.24Z"/>
        <path class="cls-2" d="M329.74,900.41c.3-.69.3-2.68,1.63-2.68.35,0,1.34,0,1.34.69v5.59s.3.35.3.65l.35.35c.35,0,.65.34.65.34h4.95c.69,0,.69.99.69,1.29,0,.69,0,1.34-.69,1.34h-4.95s-.3.64-.65.64c-.35.35-.65.69-.65.99v14.56c0,2.27.99,3.61,2.97,3.61,1.64,0,2.62-.64,4.26-.64v.64c0,1.98-4.26,3.32-5.94,3.32-2.28,0-5.6-1.98-5.6-4.65v-16.83c0-1.63-3.32-.99-3.32-2.97,0-.65,3.96-4.26,4.66-6.24Z"/>
        <path class="cls-2" d="M347.46,928.77c.65-.35,2.33-1.63,2.33-2.97v-27.72l-.35-.65c-.35-.34-1.34-1.34-1.64-1.68v-.64c0-1.63,3.61-2.33,4.61-2.33.35,0,1.98.69,1.98.99v30.4c0,2.62,2.62,2.97,2.62,5.24,0,.35-.65.69-.65.69h-8.56c-.35,0-.35-.69-.35-.99v-.34Z"/>
        <path class="cls-2" d="M375.78,905.01c4.95,0,9.89,4.6,9.89,9.9,0,.65-.34,1.98-1.68,1.98h-14.16s-.34.65-.69.99l-.3.64c0,4.95,3.27,9.26,8.56,9.26,3.32,0,5.29-2.97,7.92-2.97,0,4.31-5.6,5.94-8.92,5.94-7.57,0-12.23-4.95-12.23-12.23s3.96-13.51,11.59-13.51ZM370.83,914.27h8.91c.3,0,1.29-.99,1.29-1.34,0-2.97-2.62-5.3-5.24-5.3-2.98,0-5.95,2.32-5.95,5.3,0,.64.3,1.34.99,1.34Z"/>
        <path class="cls-2" d="M412.81,928.77c.3-.35,1.64-1.63,1.98-1.98l.3-.65v-15.2c0-1.98-3.27-.35-3.27-2.62,0-1.98,2.63-.69,3.27-2.33.35-5.59,1.34-13.51,8.62-13.51,2.27,0,4.95.99,4.95,3.26,0,1.68-.99,2.68-2.32,2.68-2.32,0-1.99-2.97-3.96-2.97-3.32,0-2.62,6.24-2.62,7.92,0,.64-.35,2.97.65,3.27.98,0,4.3,0,4.3,1.68,0,.64,0,.99-.69,1.29-1.99,0-3.96,0-4.26,1.98v5.65c0,2.97-.35,5.94.3,8.91.35,1.63,2.67,1.29,2.67,2.97,0,0,0,.99-.35.99h-9.26c-.3,0-.3-.69-.3-.99v-.34Z"/>
        <path class="cls-2" d="M446.07,914.57v-1.98c0-2.97-.99-4.95-4.31-4.95-4.95,0-1.98,5.94-5.94,5.94-1.98,0-2.62-1.63-2.62-2.97,0-4.26,5.94-5.59,9.21-5.59,3.66,0,8.61,1.98,8.61,6.29v15.15c0,1.98,2.97.35,2.97,2.33,0,1.34-2.67,2.32-3.95,2.32-1.69,0-2.33-2.32-4.31-2.32-2.32,0-4.61,2.32-7.28,2.32-3.27,0-6.24-2.32-6.24-5.94,0-9.26,11.89-7.28,13.86-10.59ZM439.79,927.78c1.98,0,6.29-.99,6.29-3.32v-5.94c0-.3-.99-.3-.99-.3-3.32,0-7.92,2.97-7.92,6.58,0,1.98.65,2.97,2.62,2.97Z"/>
        <path class="cls-2" d="M463.75,925.46v-14.16c0-1.68-2.33-1.98-2.33-3.66,0-1.29,3.61-1.98,4.61-1.98,1.98,0,1.68,3.32,2.67,3.32,2.27,0,3.96-3.96,7.23-3.96,1.68,0,2.97,1.34,2.97,2.97s-.99,2.97-2.62,2.97c-1.34,0-1.99-1.34-3.61-1.34-1.99,0-4.31,3.66-4.31,5.64v9.9c0,2.27,3.32,2.27,3.32,3.96l-.35.65-.35.35h-9.21c-.35,0-.35-.99-.35-.99,0-1.68,2.33-1.68,2.33-3.66Z"/>
        <path class="cls-2" d="M489.64,900.41c.3-.69.3-2.68,1.63-2.68.35,0,1.34,0,1.34.69v5.59s.3.35.3.65l.35.35c.35,0,.65.34.65.34h4.95c.69,0,.69.99.69,1.29,0,.69,0,1.34-.69,1.34h-4.95s-.3.64-.65.64c-.35.35-.65.69-.65.99v14.56c0,2.27.99,3.61,2.97,3.61,1.64,0,2.62-.64,4.26-.64v.64c0,1.98-4.26,3.32-5.94,3.32-2.28,0-5.6-1.98-5.6-4.65v-16.83c0-1.63-3.32-.99-3.32-2.97,0-.65,3.96-4.26,4.66-6.24Z"/>
        <path class="cls-2" d="M509.75,925.8v-27.37c0-1.68-1.99-1.68-1.99-3.32s3.96-2.33,4.61-2.33c.35,0,1.98.69,1.98.99v12.57s.35.64.35.99l.35.3c2.27,0,4.26-2.62,6.93-2.62,4.6,0,6.24,3.32,7.92,7.28v12.87c0,1.29,1.99,3.27,2.62,3.61v.34c0,.3,0,.99-.64.99h-8.62c-.65,0-.65-.69-.65-.99v-.34c.35-.35,2.63-1.98,2.63-3.32v-11.88c0-2.62-1.64-5.24-4.26-5.24-6.29,0-6.63,7.92-6.63,12.18v3.96c0,2.33,2.67,2.97,2.67,4.95,0,.35-.69.69-.69.69h-8.56c-.35,0-.35-.69-.35-.69,0-1.98,2.33-1.98,2.33-3.61Z"/>
        <path class="cls-2" d="M551.08,905.01c4.95,0,9.89,4.6,9.89,9.9,0,.65-.34,1.98-1.68,1.98h-14.16s-.34.65-.69.99l-.3.64c0,4.95,3.27,9.26,8.56,9.26,3.32,0,5.29-2.97,7.92-2.97,0,4.31-5.6,5.94-8.92,5.94-7.57,0-12.23-4.95-12.23-12.23s3.96-13.51,11.59-13.51ZM546.13,914.27h8.91c.3,0,1.29-.99,1.29-1.34,0-2.97-2.62-5.3-5.24-5.3-2.97,0-5.95,2.32-5.95,5.3,0,.64.3,1.34.99,1.34Z"/>
        <path class="cls-2" d="M571.18,925.46v-14.16c0-1.68-2.33-1.98-2.33-3.66,0-1.29,3.61-1.98,4.61-1.98,1.98,0,1.68,3.32,2.67,3.32,2.27,0,3.96-3.96,7.23-3.96,1.68,0,2.97,1.34,2.97,2.97s-.99,2.97-2.62,2.97c-1.34,0-1.99-1.34-3.61-1.34-1.99,0-4.31,3.66-4.31,5.64v9.9c0,2.27,3.32,2.27,3.32,3.96l-.35.65-.35.35h-9.21c-.35,0-.35-.99-.35-.99,0-1.68,2.33-1.68,2.33-3.66Z"/>
        <path class="cls-2" d="M595.48,931.74v-.35c-.98-.99-2.32-1.98-2.32-3.61s1.69-3.32,3.32-3.32c1.99,0,3.32,1.68,3.32,3.66s-1.68,6.58-3.96,6.58c-.35,0-.98,0-.98-.35,0-.99.64-1.63.64-2.62Z"/>
        <path class="cls-2" d="M641.28,914.57v-1.98c0-2.97-.99-4.95-4.31-4.95-4.95,0-1.98,5.94-5.94,5.94-1.98,0-2.62-1.63-2.62-2.97,0-4.26,5.94-5.59,9.21-5.59,3.66,0,8.61,1.98,8.61,6.29v15.15c0,1.98,2.97.35,2.97,2.33,0,1.34-2.67,2.32-3.95,2.32-1.69,0-2.33-2.32-4.31-2.32-2.32,0-4.61,2.32-7.28,2.32-3.27,0-6.24-2.32-6.24-5.94,0-9.26,11.89-7.28,13.86-10.59ZM634.99,927.78c1.98,0,6.29-.99,6.29-3.32v-5.94c0-.3-.99-.3-.99-.3-3.32,0-7.92,2.97-7.92,6.58,0,1.98.65,2.97,2.62,2.97Z"/>
        <path class="cls-2" d="M675.23,928.77c.65-.35,2.33-1.63,2.33-2.97v-27.72l-.35-.65c-.35-.34-1.34-1.34-1.64-1.68v-.64c0-1.63,3.61-2.33,4.61-2.33.35,0,1.98.69,1.98.99v30.4c0,2.62,2.62,2.97,2.62,5.24,0,.35-.65.69-.65.69h-8.56c-.35,0-.35-.69-.35-.99v-.34Z"/>
        <path class="cls-2" d="M702.81,905.35c7.23,0,11.88,5.6,11.88,12.53s-4.65,12.87-11.88,12.87-11.59-5.94-11.59-12.87,4.31-12.53,11.59-12.53ZM703.11,928.43c5.29,0,6.63-6.58,6.63-10.89,0-4.6-1.69-10.2-6.93-10.2-5.64,0-6.63,6.58-6.63,10.55,0,4.6,1.33,10.54,6.93,10.54Z"/>
        <path class="cls-2" d="M726.72,900.41c.3-.69.3-2.68,1.63-2.68.35,0,1.34,0,1.34.69v5.59s.3.35.3.65l.35.35c.35,0,.65.34.65.34h4.95c.69,0,.69.99.69,1.29,0,.69,0,1.34-.69,1.34h-4.95s-.3.64-.65.64c-.35.35-.65.69-.65.99v14.56c0,2.27.99,3.61,2.97,3.61,1.64,0,2.62-.64,4.26-.64v.64c0,1.98-4.26,3.32-5.94,3.32-2.28,0-5.6-1.98-5.6-4.65v-16.83c0-1.63-3.32-.99-3.32-2.97,0-.65,3.96-4.26,4.66-6.24Z"/>
        <path class="cls-2" d="M766.62,930.11s-.99,0-.99-.35v-29.06c0-1.98-.64-3.96-2.62-4.95v-.64c0-1.63,3.61-2.33,4.96-2.33.65,0,1.98.69,1.98,1.68v11.88c0,.3.35.3.65.3,1.98,0,3.66-1.29,5.64-1.29,6.93,0,10.89,6.24,10.89,12.53s-3.96,12.87-10.89,12.87c-2.67,0-4.31-1.98-6.63-1.98-1.28,0-1.63,1.34-2.97,1.34ZM769.93,912.29v12.18c0,1.98,3.61,3.32,4.96,3.32,5.29,0,7.27-5.29,7.27-9.9,0-3.96-1.68-9.55-6.63-9.55-2.27,0-5.59,1.29-5.59,3.96Z"/>
        <path class="cls-2" d="M806.32,905.01c4.95,0,9.89,4.6,9.89,9.9,0,.65-.34,1.98-1.68,1.98h-14.16s-.34.65-.69.99l-.3.64c0,4.95,3.27,9.26,8.56,9.26,3.32,0,5.29-2.97,7.92-2.97,0,4.31-5.6,5.94-8.92,5.94-7.57,0-12.23-4.95-12.23-12.23s3.96-13.51,11.59-13.51ZM801.37,914.27h8.91c.3,0,1.29-.99,1.29-1.34,0-2.97-2.62-5.3-5.24-5.3-2.98,0-5.95,2.32-5.95,5.3,0,.64.3,1.34.99,1.34Z"/>
        <path class="cls-2" d="M828.45,900.41c.3-.69.3-2.68,1.63-2.68.35,0,1.34,0,1.34.69v5.59s.3.35.3.65l.35.35c.35,0,.65.34.65.34h4.95c.69,0,.69.99.69,1.29,0,.69,0,1.34-.69,1.34h-4.95s-.3.64-.65.64c-.35.35-.65.69-.65.99v14.56c0,2.27.99,3.61,2.97,3.61,1.64,0,2.62-.64,4.26-.64v.64c0,1.98-4.26,3.32-5.94,3.32-2.28,0-5.6-1.98-5.6-4.65v-16.83c0-1.63-3.32-.99-3.32-2.97,0-.65,3.96-4.26,4.66-6.24Z"/>
        <path class="cls-2" d="M850.48,900.41c.3-.69.3-2.68,1.63-2.68.35,0,1.34,0,1.34.69v5.59s.3.35.3.65l.35.35c.35,0,.65.34.65.34h4.95c.69,0,.69.99.69,1.29,0,.69,0,1.34-.69,1.34h-4.95s-.3.64-.65.64c-.35.35-.65.69-.65.99v14.56c0,2.27.99,3.61,2.97,3.61,1.64,0,2.62-.64,4.26-.64v.64c0,1.98-4.26,3.32-5.94,3.32-2.28,0-5.6-1.98-5.6-4.65v-16.83c0-1.63-3.32-.99-3.32-2.97,0-.65,3.96-4.26,4.66-6.24Z"/>
        <path class="cls-2" d="M880.03,905.01c4.95,0,9.89,4.6,9.89,9.9,0,.65-.34,1.98-1.68,1.98h-14.16s-.34.65-.69.99l-.3.64c0,4.95,3.27,9.26,8.56,9.26,3.32,0,5.29-2.97,7.92-2.97,0,4.31-5.6,5.94-8.92,5.94-7.57,0-12.23-4.95-12.23-12.23s3.96-13.51,11.59-13.51ZM875.08,914.27h8.91c.3,0,1.29-.99,1.29-1.34,0-2.97-2.62-5.3-5.24-5.3-2.98,0-5.95,2.32-5.95,5.3,0,.64.3,1.34.99,1.34Z"/>
        <path class="cls-2" d="M900.13,925.46v-14.16c0-1.68-2.33-1.98-2.33-3.66,0-1.29,3.61-1.98,4.61-1.98,1.98,0,1.68,3.32,2.67,3.32,2.27,0,3.96-3.96,7.23-3.96,1.68,0,2.97,1.34,2.97,2.97s-.99,2.97-2.62,2.97c-1.34,0-1.99-1.34-3.61-1.34-1.99,0-4.31,3.66-4.31,5.64v9.9c0,2.27,3.32,2.27,3.32,3.96l-.35.65-.35.35h-9.21c-.35,0-.35-.99-.35-.99,0-1.68,2.33-1.68,2.33-3.66Z"/>
        <path class="cls-2" d="M925.78,924.17c1.64,0,2.97,1.63,2.97,3.26s-.99,3.32-2.97,3.32-3.32-.99-3.32-3.32c0-1.63.99-3.26,3.32-3.26Z"/>
      </g>
    </g>
  </g>
</svg>