<svg xmlns="http://www.w3.org/2000/svg" fill="none" class="icon icon-mail" viewBox="0 0 478.4 469.99">
<path fill="currentColor" fill-rule="evenodd" d="M81.09,386.81v-7.79c0-3.13,2.54-5.67,5.67-5.67h216.89l13.25-51.33H70.8c-5.31,0-10.04-3.56-11.51-8.66L.46,109.24c-1.03-3.6-.31-7.53,1.94-10.53,2.25-2.99,5.82-4.77,9.57-4.77h363.79l21.92-84.95c1.37-5.29,6.14-8.98,11.6-8.98h63.44c3.13,0,5.67,2.54,5.67,5.67v7.78c0,3.13-2.54,5.67-5.67,5.67h-57.91l-94.03,364.37c-1.37,5.29-6.14,8.99-11.6,8.99H86.76c-3.13,0-5.67-2.54-5.67-5.67ZM21.47,113.06l54.7,189.85,245.86-.07,48.72-189.8-349.28.03Z"/>
<path fill="currentColor" fill-rule="evenodd" d="M113.1,467.96c-15.51,0-28.13-12.62-28.13-28.13s12.62-28.14,28.13-28.14,28.13,12.62,28.13,28.14-12.62,28.13-28.13,28.13Z"/>
<path fill="currentColor" fill-rule="evenodd" d="M282.88,469.99c-15.51,0-28.13-12.62-28.13-28.14s12.62-28.13,28.13-28.13,28.13,12.62,28.13,28.13-12.62,28.14-28.13,28.14Z"/>
</svg>