<svg xmlns="http://www.w3.org/2000/svg" fill="none" class="icon icon-mail" viewBox="0 0 175.2 127.95">
<path fill="currentColor" fill-rule="evenodd" d="M175.18,7.52c0-.11,0-.22-.02-.32-.03-.34-.08-.67-.15-.99-.01-.07-.04-.14-.05-.2-.07-.29-.16-.57-.26-.85-.02-.05-.03-.11-.05-.16-.01-.03-.03-.05-.04-.08-.12-.31-.27-.6-.43-.89-.06-.1-.12-.2-.18-.3-.12-.19-.25-.38-.39-.57-.07-.1-.14-.2-.22-.3-.18-.22-.39-.43-.59-.64-.11-.1-.21-.2-.32-.29-.16-.14-.33-.28-.51-.4-.12-.09-.23-.17-.35-.25-.23-.15-.47-.29-.71-.41-.11-.05-.21-.1-.32-.15-.27-.12-.54-.23-.82-.32-.05-.02-.1-.03-.15-.05-.31-.1-.63-.16-.96-.22-.09-.02-.19-.03-.28-.04-.34-.05-.68-.08-1.03-.08,0,0-.01,0-.02,0H7.87c-.36,0-.72.03-1.07.08-.08.01-.16.02-.24.04-.7.12-1.38.33-2,.62-.07.03-.14.06-.21.1-.31.16-.61.32-.89.52-.03.02-.05.04-.07.05-.26.18-.5.37-.73.58-.07.06-.14.12-.21.19-.24.23-.46.46-.67.72-.04.05-.08.11-.13.17-.18.23-.34.46-.49.71-.05.07-.09.15-.14.22-.17.29-.31.6-.44.91-.01.03-.03.05-.04.08-.02.05-.03.1-.05.16-.1.28-.19.56-.26.85-.02.07-.04.14-.05.2-.07.32-.12.65-.15.99,0,.11-.01.22-.02.32,0,.12-.02.23-.02.35v112.21c0,4.35,3.53,7.87,7.87,7.87h159.45c4.35,0,7.87-3.53,7.87-7.87V7.87h.01c0-.12-.01-.23-.02-.35ZM167.32,7.87l-79.72,73.86h0L7.87,7.87h159.45ZM7.87,120.08V18.61l74.37,68.9h.01c3.02,2.8,7.68,2.8,10.7,0L167.32,18.62v101.46H7.87Z"/>
</svg>